# xmcd
#
# Track frame offsets: 
#        150
#        20853
#        47965
#        68165
#        90058
#        113003
#        131653
#        151638
#        174435
#        201315
#
# Disc length: 3015 seconds
#
# Revision: 0
# Processed by: cddbd v1.5.2PL0 Copyright (c) Steve Scherf et al.
# Submitted via: ExactAudioCopy v1.0b3
#
DISCID=7c0bc50a
DTITLE=Tuan Vu, Thien Trang - Dem Trao Ky Niem
DYEAR=1990
DGENRE=
TTITLE0=Dem trao ky niem
TTITLE1=Tuan Vu - Vung dat cam
TTITLE2=Thien Trang - Xin tra toi ve
TTITLE3=Tuan Vu - Ngan thu vinh biet
TTITLE4=Thien Trang - Tan vo
TTITLE5=Do tinh lo chuyen
TTITLE6=Tuan Vu - Trong cuoc tinh sau
TTITLE7=Thien Trang - Khi da yeu
TTITLE8=Tuan Vu - Giac mo dia dang
TTITLE9=Thien Trang - Cuoc tinh da mat
EXTD=
EXTT0=
EXTT1=
EXTT2=
EXTT3=
EXTT4=
EXTT5=
EXTT6=
EXTT7=
EXTT8=
EXTT9=
PLAYORDER=
